<svg width="20" height="20" viewBox="0 0 20 20" fill="none" xmlns="http://www.w3.org/2000/svg">
<path d="M0.399994 1.60002C0.399994 0.937283 0.937252 0.400024 1.59999 0.400024H4.18344C4.77005 0.400024 5.27068 0.82412 5.36711 1.40275L6.25429 6.72579C6.3409 7.24543 6.07846 7.76079 5.60727 7.99639L3.74951 8.92527C5.08906 12.254 7.74601 14.911 11.0747 16.2505L12.0036 14.3927C12.2392 13.9216 12.7546 13.6591 13.2742 13.7457L18.5973 14.6329C19.1759 14.7293 19.6 15.23 19.6 15.8166V18.4C19.6 19.0628 19.0627 19.6 18.4 19.6H16C7.38435 19.6 0.399994 12.6157 0.399994 4.00002V1.60002Z" fill="#5A5A5A"/>
</svg>
